<mxfile host="Electron" modified="2024-04-20T14:10:56.567Z" agent="Mozilla/5.0 (Macintosh; Intel Mac OS X 10_15_7) AppleWebKit/537.36 (KHTML, like Gecko) draw.io/24.1.0 Chrome/120.0.6099.109 Electron/28.1.0 Safari/537.36" etag="DI-srHb9vZja5vxLMuL3" version="24.1.0" type="device">
  <diagram name="Page-1" id="rKfRV2OKrSzcVCUFkH_n">
    <mxGraphModel dx="447" dy="1518" grid="0" gridSize="10" guides="1" tooltips="1" connect="1" arrows="1" fold="1" page="1" pageScale="1" pageWidth="850" pageHeight="1100" math="0" shadow="0">
      <root>
        <mxCell id="0" />
        <mxCell id="1" parent="0" />
        <mxCell id="eKCD0eh1Yr5J9AccJsgl-1" value="Jonas (young)" style="rounded=0;whiteSpace=wrap;html=1;" vertex="1" parent="1">
          <mxGeometry x="267" y="55" width="120" height="60" as="geometry" />
        </mxCell>
        <mxCell id="eKCD0eh1Yr5J9AccJsgl-2" value="Jonas (homeless)" style="rounded=0;whiteSpace=wrap;html=1;" vertex="1" parent="1">
          <mxGeometry x="201" y="507" width="120" height="60" as="geometry" />
        </mxCell>
        <mxCell id="eKCD0eh1Yr5J9AccJsgl-5" value="re" style="rounded=0;whiteSpace=wrap;html=1;" vertex="1" parent="1">
          <mxGeometry x="137" y="373" width="120" height="60" as="geometry" />
        </mxCell>
        <mxCell id="eKCD0eh1Yr5J9AccJsgl-6" value="Aleksander&lt;br&gt;kÃ¶hler" style="rounded=0;whiteSpace=wrap;html=1;" vertex="1" parent="1">
          <mxGeometry x="1053" y="673" width="120" height="60" as="geometry" />
        </mxCell>
        <mxCell id="eKCD0eh1Yr5J9AccJsgl-7" value="Ulrich" style="rounded=0;whiteSpace=wrap;html=1;" vertex="1" parent="1">
          <mxGeometry x="513" y="283" width="120" height="60" as="geometry" />
        </mxCell>
        <mxCell id="eKCD0eh1Yr5J9AccJsgl-8" value="" style="endArrow=classic;html=1;rounded=0;" edge="1" parent="1" source="eKCD0eh1Yr5J9AccJsgl-7" target="eKCD0eh1Yr5J9AccJsgl-9">
          <mxGeometry width="50" height="50" relative="1" as="geometry">
            <mxPoint x="418" y="473" as="sourcePoint" />
            <mxPoint x="357" y="453" as="targetPoint" />
          </mxGeometry>
        </mxCell>
        <mxCell id="eKCD0eh1Yr5J9AccJsgl-12" value="Son" style="edgeLabel;html=1;align=center;verticalAlign=middle;resizable=0;points=[];" vertex="1" connectable="0" parent="eKCD0eh1Yr5J9AccJsgl-8">
          <mxGeometry x="-0.3059" y="2" relative="1" as="geometry">
            <mxPoint as="offset" />
          </mxGeometry>
        </mxCell>
        <mxCell id="eKCD0eh1Yr5J9AccJsgl-9" value="Mikkel" style="rounded=0;whiteSpace=wrap;html=1;" vertex="1" parent="1">
          <mxGeometry x="536" y="384" width="120" height="60" as="geometry" />
        </mxCell>
        <mxCell id="eKCD0eh1Yr5J9AccJsgl-10" value="Michael&lt;br&gt;Kanwal" style="rounded=0;whiteSpace=wrap;html=1;" vertex="1" parent="1">
          <mxGeometry x="548" y="550" width="120" height="60" as="geometry" />
        </mxCell>
        <mxCell id="eKCD0eh1Yr5J9AccJsgl-13" value="" style="endArrow=classic;html=1;rounded=0;" edge="1" parent="1" source="eKCD0eh1Yr5J9AccJsgl-9" target="eKCD0eh1Yr5J9AccJsgl-10">
          <mxGeometry width="50" height="50" relative="1" as="geometry">
            <mxPoint x="307" y="503" as="sourcePoint" />
            <mxPoint x="357" y="453" as="targetPoint" />
          </mxGeometry>
        </mxCell>
        <mxCell id="eKCD0eh1Yr5J9AccJsgl-32" value="Becomes" style="edgeLabel;html=1;align=center;verticalAlign=middle;resizable=0;points=[];" vertex="1" connectable="0" parent="eKCD0eh1Yr5J9AccJsgl-13">
          <mxGeometry x="-0.0186" y="-1" relative="1" as="geometry">
            <mxPoint as="offset" />
          </mxGeometry>
        </mxCell>
        <mxCell id="eKCD0eh1Yr5J9AccJsgl-14" value="Noah" style="rounded=0;whiteSpace=wrap;html=1;" vertex="1" parent="1">
          <mxGeometry x="319" y="221" width="120" height="60" as="geometry" />
        </mxCell>
        <mxCell id="eKCD0eh1Yr5J9AccJsgl-15" value="Mats" style="rounded=0;whiteSpace=wrap;html=1;" vertex="1" parent="1">
          <mxGeometry x="97" y="283" width="120" height="60" as="geometry" />
        </mxCell>
        <mxCell id="eKCD0eh1Yr5J9AccJsgl-16" value="Yansin" style="rounded=0;whiteSpace=wrap;html=1;" vertex="1" parent="1">
          <mxGeometry x="93" y="177" width="120" height="60" as="geometry" />
        </mxCell>
        <mxCell id="eKCD0eh1Yr5J9AccJsgl-17" value="Eric" style="rounded=0;whiteSpace=wrap;html=1;" vertex="1" parent="1">
          <mxGeometry x="481" y="105" width="120" height="60" as="geometry" />
        </mxCell>
        <mxCell id="eKCD0eh1Yr5J9AccJsgl-18" value="" style="endArrow=classic;html=1;rounded=0;" edge="1" parent="1" source="eKCD0eh1Yr5J9AccJsgl-14" target="eKCD0eh1Yr5J9AccJsgl-17">
          <mxGeometry width="50" height="50" relative="1" as="geometry">
            <mxPoint x="332" y="369" as="sourcePoint" />
            <mxPoint x="382" y="319" as="targetPoint" />
          </mxGeometry>
        </mxCell>
        <mxCell id="eKCD0eh1Yr5J9AccJsgl-21" value="kills" style="edgeLabel;html=1;align=center;verticalAlign=middle;resizable=0;points=[];" vertex="1" connectable="0" parent="eKCD0eh1Yr5J9AccJsgl-18">
          <mxGeometry x="-0.2956" y="2" relative="1" as="geometry">
            <mxPoint as="offset" />
          </mxGeometry>
        </mxCell>
        <mxCell id="eKCD0eh1Yr5J9AccJsgl-19" value="" style="endArrow=classic;html=1;rounded=0;" edge="1" parent="1" source="eKCD0eh1Yr5J9AccJsgl-14" target="eKCD0eh1Yr5J9AccJsgl-16">
          <mxGeometry width="50" height="50" relative="1" as="geometry">
            <mxPoint x="401" y="234" as="sourcePoint" />
            <mxPoint x="550" y="222" as="targetPoint" />
          </mxGeometry>
        </mxCell>
        <mxCell id="eKCD0eh1Yr5J9AccJsgl-22" value="kills" style="edgeLabel;html=1;align=center;verticalAlign=middle;resizable=0;points=[];" vertex="1" connectable="0" parent="eKCD0eh1Yr5J9AccJsgl-19">
          <mxGeometry x="0.2115" y="1" relative="1" as="geometry">
            <mxPoint x="6" y="-3" as="offset" />
          </mxGeometry>
        </mxCell>
        <mxCell id="eKCD0eh1Yr5J9AccJsgl-20" value="" style="endArrow=classic;html=1;rounded=0;" edge="1" parent="1" source="eKCD0eh1Yr5J9AccJsgl-14" target="eKCD0eh1Yr5J9AccJsgl-15">
          <mxGeometry width="50" height="50" relative="1" as="geometry">
            <mxPoint x="332" y="369" as="sourcePoint" />
            <mxPoint x="382" y="319" as="targetPoint" />
          </mxGeometry>
        </mxCell>
        <mxCell id="eKCD0eh1Yr5J9AccJsgl-23" value="kills" style="edgeLabel;html=1;align=center;verticalAlign=middle;resizable=0;points=[];" vertex="1" connectable="0" parent="eKCD0eh1Yr5J9AccJsgl-20">
          <mxGeometry x="0.0185" y="1" relative="1" as="geometry">
            <mxPoint as="offset" />
          </mxGeometry>
        </mxCell>
        <mxCell id="eKCD0eh1Yr5J9AccJsgl-24" value="Police lady&lt;br&gt;sharlot" style="rounded=0;whiteSpace=wrap;html=1;" vertex="1" parent="1">
          <mxGeometry x="323" y="725" width="120" height="60" as="geometry" />
        </mxCell>
        <mxCell id="eKCD0eh1Yr5J9AccJsgl-25" value="&lt;p style=&quot;margin: 0px; font-variant-numeric: normal; font-variant-east-asian: normal; font-variant-alternates: normal; font-kerning: auto; font-optical-sizing: auto; font-feature-settings: normal; font-variation-settings: normal; font-variant-position: normal; font-stretch: normal; font-size: 13px; line-height: normal; font-family: &amp;quot;Helvetica Neue&amp;quot;; text-align: start;&quot; class=&quot;p1&quot;&gt;HG t&lt;span style=&quot;background-color: initial;&quot;&gt;annatus&lt;/span&gt;&lt;/p&gt;" style="rounded=0;whiteSpace=wrap;html=1;" vertex="1" parent="1">
          <mxGeometry x="548" y="643" width="120" height="60" as="geometry" />
        </mxCell>
        <mxCell id="eKCD0eh1Yr5J9AccJsgl-26" value="" style="endArrow=none;html=1;rounded=0;startArrow=classic;startFill=1;endFill=0;" edge="1" parent="1" source="eKCD0eh1Yr5J9AccJsgl-25" target="eKCD0eh1Yr5J9AccJsgl-24">
          <mxGeometry width="50" height="50" relative="1" as="geometry">
            <mxPoint x="400" y="744" as="sourcePoint" />
            <mxPoint x="450" y="694" as="targetPoint" />
          </mxGeometry>
        </mxCell>
        <mxCell id="eKCD0eh1Yr5J9AccJsgl-27" value="Adopted &lt;br&gt;Grandfather" style="edgeLabel;html=1;align=center;verticalAlign=middle;resizable=0;points=[];" vertex="1" connectable="0" parent="eKCD0eh1Yr5J9AccJsgl-26">
          <mxGeometry x="-0.4391" y="-3" relative="1" as="geometry">
            <mxPoint x="1" y="16" as="offset" />
          </mxGeometry>
        </mxCell>
        <mxCell id="eKCD0eh1Yr5J9AccJsgl-28" value="Dark novel" style="rounded=0;whiteSpace=wrap;html=1;" vertex="1" parent="1">
          <mxGeometry x="601" y="788" width="120" height="60" as="geometry" />
        </mxCell>
        <mxCell id="eKCD0eh1Yr5J9AccJsgl-29" value="" style="endArrow=classic;html=1;rounded=0;" edge="1" parent="1" source="eKCD0eh1Yr5J9AccJsgl-25" target="eKCD0eh1Yr5J9AccJsgl-28">
          <mxGeometry width="50" height="50" relative="1" as="geometry">
            <mxPoint x="400" y="744" as="sourcePoint" />
            <mxPoint x="450" y="694" as="targetPoint" />
          </mxGeometry>
        </mxCell>
        <mxCell id="eKCD0eh1Yr5J9AccJsgl-30" value="Writes from &lt;br&gt;future example" style="edgeLabel;html=1;align=center;verticalAlign=middle;resizable=0;points=[];" vertex="1" connectable="0" parent="eKCD0eh1Yr5J9AccJsgl-29">
          <mxGeometry x="-0.2827" y="1" relative="1" as="geometry">
            <mxPoint x="18" as="offset" />
          </mxGeometry>
        </mxCell>
        <mxCell id="eKCD0eh1Yr5J9AccJsgl-33" value="" style="endArrow=classic;html=1;rounded=0;" edge="1" parent="1" source="eKCD0eh1Yr5J9AccJsgl-10" target="eKCD0eh1Yr5J9AccJsgl-1">
          <mxGeometry width="50" height="50" relative="1" as="geometry">
            <mxPoint x="430" y="520" as="sourcePoint" />
            <mxPoint x="480" y="470" as="targetPoint" />
          </mxGeometry>
        </mxCell>
        <mxCell id="eKCD0eh1Yr5J9AccJsgl-34" value="Son" style="edgeLabel;html=1;align=center;verticalAlign=middle;resizable=0;points=[];" vertex="1" connectable="0" parent="eKCD0eh1Yr5J9AccJsgl-33">
          <mxGeometry x="-0.0901" y="-2" relative="1" as="geometry">
            <mxPoint as="offset" />
          </mxGeometry>
        </mxCell>
        <mxCell id="eKCD0eh1Yr5J9AccJsgl-35" value="" style="endArrow=classic;html=1;rounded=0;" edge="1" parent="1" source="eKCD0eh1Yr5J9AccJsgl-1" target="eKCD0eh1Yr5J9AccJsgl-2">
          <mxGeometry width="50" height="50" relative="1" as="geometry">
            <mxPoint x="430" y="520" as="sourcePoint" />
            <mxPoint x="480" y="470" as="targetPoint" />
          </mxGeometry>
        </mxCell>
        <mxCell id="eKCD0eh1Yr5J9AccJsgl-38" value="Becomes" style="edgeLabel;html=1;align=center;verticalAlign=middle;resizable=0;points=[];" vertex="1" connectable="0" parent="eKCD0eh1Yr5J9AccJsgl-35">
          <mxGeometry x="-0.1187" y="1" relative="1" as="geometry">
            <mxPoint as="offset" />
          </mxGeometry>
        </mxCell>
        <mxCell id="eKCD0eh1Yr5J9AccJsgl-215" value="Different ?" style="edgeLabel;html=1;align=center;verticalAlign=middle;resizable=0;points=[];" vertex="1" connectable="0" parent="eKCD0eh1Yr5J9AccJsgl-35">
          <mxGeometry x="-0.5468" y="-3" relative="1" as="geometry">
            <mxPoint x="7" y="-23" as="offset" />
          </mxGeometry>
        </mxCell>
        <mxCell id="eKCD0eh1Yr5J9AccJsgl-36" value="" style="endArrow=classic;html=1;rounded=0;" edge="1" parent="1" source="eKCD0eh1Yr5J9AccJsgl-2" target="eKCD0eh1Yr5J9AccJsgl-5">
          <mxGeometry width="50" height="50" relative="1" as="geometry">
            <mxPoint x="430" y="520" as="sourcePoint" />
            <mxPoint x="480" y="470" as="targetPoint" />
          </mxGeometry>
        </mxCell>
        <mxCell id="eKCD0eh1Yr5J9AccJsgl-39" value="Becomes" style="edgeLabel;html=1;align=center;verticalAlign=middle;resizable=0;points=[];" vertex="1" connectable="0" parent="eKCD0eh1Yr5J9AccJsgl-36">
          <mxGeometry x="0.0456" y="-2" relative="1" as="geometry">
            <mxPoint as="offset" />
          </mxGeometry>
        </mxCell>
        <mxCell id="eKCD0eh1Yr5J9AccJsgl-40" value="" style="endArrow=classic;html=1;rounded=0;" edge="1" parent="1" source="eKCD0eh1Yr5J9AccJsgl-7" target="eKCD0eh1Yr5J9AccJsgl-15">
          <mxGeometry width="50" height="50" relative="1" as="geometry">
            <mxPoint x="416" y="447" as="sourcePoint" />
            <mxPoint x="466" y="397" as="targetPoint" />
          </mxGeometry>
        </mxCell>
        <mxCell id="eKCD0eh1Yr5J9AccJsgl-41" value="Brother" style="edgeLabel;html=1;align=center;verticalAlign=middle;resizable=0;points=[];" vertex="1" connectable="0" parent="eKCD0eh1Yr5J9AccJsgl-40">
          <mxGeometry x="-0.2083" y="-2" relative="1" as="geometry">
            <mxPoint x="26" as="offset" />
          </mxGeometry>
        </mxCell>
        <mxCell id="eKCD0eh1Yr5J9AccJsgl-42" value="Katrihna" style="rounded=0;whiteSpace=wrap;html=1;" vertex="1" parent="1">
          <mxGeometry x="745" y="247" width="120" height="60" as="geometry" />
        </mxCell>
        <mxCell id="eKCD0eh1Yr5J9AccJsgl-43" value="" style="endArrow=classic;html=1;rounded=0;" edge="1" parent="1" source="eKCD0eh1Yr5J9AccJsgl-7" target="eKCD0eh1Yr5J9AccJsgl-42">
          <mxGeometry width="50" height="50" relative="1" as="geometry">
            <mxPoint x="416" y="447" as="sourcePoint" />
            <mxPoint x="466" y="397" as="targetPoint" />
          </mxGeometry>
        </mxCell>
        <mxCell id="eKCD0eh1Yr5J9AccJsgl-44" value="wife" style="edgeLabel;html=1;align=center;verticalAlign=middle;resizable=0;points=[];" vertex="1" connectable="0" parent="eKCD0eh1Yr5J9AccJsgl-43">
          <mxGeometry x="-0.2534" y="-1" relative="1" as="geometry">
            <mxPoint x="8" y="-3" as="offset" />
          </mxGeometry>
        </mxCell>
        <mxCell id="eKCD0eh1Yr5J9AccJsgl-45" value="Egon tiedeman&lt;br&gt;police man" style="rounded=0;whiteSpace=wrap;html=1;" vertex="1" parent="1">
          <mxGeometry x="777" y="373" width="120" height="52" as="geometry" />
        </mxCell>
        <mxCell id="eKCD0eh1Yr5J9AccJsgl-46" value="" style="endArrow=classic;html=1;rounded=0;" edge="1" parent="1" source="eKCD0eh1Yr5J9AccJsgl-45" target="eKCD0eh1Yr5J9AccJsgl-7">
          <mxGeometry width="50" height="50" relative="1" as="geometry">
            <mxPoint x="769" y="417" as="sourcePoint" />
            <mxPoint x="819" y="367" as="targetPoint" />
          </mxGeometry>
        </mxCell>
        <mxCell id="eKCD0eh1Yr5J9AccJsgl-47" value="catches in 1953" style="edgeLabel;html=1;align=center;verticalAlign=middle;resizable=0;points=[];" vertex="1" connectable="0" parent="eKCD0eh1Yr5J9AccJsgl-46">
          <mxGeometry x="-0.0131" y="3" relative="1" as="geometry">
            <mxPoint as="offset" />
          </mxGeometry>
        </mxCell>
        <mxCell id="eKCD0eh1Yr5J9AccJsgl-48" value="&lt;p style=&quot;margin: 0px; font-variant-numeric: normal; font-variant-east-asian: normal; font-variant-alternates: normal; font-kerning: auto; font-optical-sizing: auto; font-feature-settings: normal; font-variation-settings: normal; font-variant-position: normal; font-stretch: normal; font-size: 13px; line-height: normal; font-family: &amp;quot;Helvetica Neue&amp;quot;; text-align: start;&quot; class=&quot;p1&quot;&gt;Claudia&lt;/p&gt;" style="rounded=0;whiteSpace=wrap;html=1;" vertex="1" parent="1">
          <mxGeometry x="760" y="533" width="110" height="47" as="geometry" />
        </mxCell>
        <mxCell id="eKCD0eh1Yr5J9AccJsgl-52" value="" style="endArrow=classic;html=1;rounded=0;" edge="1" parent="1" source="eKCD0eh1Yr5J9AccJsgl-45" target="eKCD0eh1Yr5J9AccJsgl-48">
          <mxGeometry width="50" height="50" relative="1" as="geometry">
            <mxPoint x="681" y="550" as="sourcePoint" />
            <mxPoint x="731" y="500" as="targetPoint" />
          </mxGeometry>
        </mxCell>
        <mxCell id="eKCD0eh1Yr5J9AccJsgl-53" value="Daughter" style="edgeLabel;html=1;align=center;verticalAlign=middle;resizable=0;points=[];" vertex="1" connectable="0" parent="eKCD0eh1Yr5J9AccJsgl-52">
          <mxGeometry x="-0.0799" y="2" relative="1" as="geometry">
            <mxPoint as="offset" />
          </mxGeometry>
        </mxCell>
        <mxCell id="eKCD0eh1Yr5J9AccJsgl-54" value="Regina" style="rounded=0;whiteSpace=wrap;html=1;" vertex="1" parent="1">
          <mxGeometry x="805" y="620" width="98" height="39" as="geometry" />
        </mxCell>
        <mxCell id="eKCD0eh1Yr5J9AccJsgl-55" value="" style="endArrow=classic;html=1;rounded=0;" edge="1" parent="1" source="eKCD0eh1Yr5J9AccJsgl-48" target="eKCD0eh1Yr5J9AccJsgl-54">
          <mxGeometry width="50" height="50" relative="1" as="geometry">
            <mxPoint x="846" y="573" as="sourcePoint" />
            <mxPoint x="896" y="523" as="targetPoint" />
          </mxGeometry>
        </mxCell>
        <mxCell id="eKCD0eh1Yr5J9AccJsgl-56" value="Daughter" style="edgeLabel;html=1;align=center;verticalAlign=middle;resizable=0;points=[];" vertex="1" connectable="0" parent="eKCD0eh1Yr5J9AccJsgl-55">
          <mxGeometry x="-0.2251" y="1" relative="1" as="geometry">
            <mxPoint as="offset" />
          </mxGeometry>
        </mxCell>
        <mxCell id="eKCD0eh1Yr5J9AccJsgl-57" value="&lt;p style=&quot;margin: 0px; font-variant-numeric: normal; font-variant-east-asian: normal; font-variant-alternates: normal; font-kerning: auto; font-optical-sizing: auto; font-feature-settings: normal; font-variation-settings: normal; font-variant-position: normal; font-stretch: normal; font-size: 13px; line-height: normal; font-family: &amp;quot;Helvetica Neue&amp;quot;; text-align: start;&quot; class=&quot;p1&quot;&gt;Bartoz&lt;/p&gt;" style="rounded=0;whiteSpace=wrap;html=1;" vertex="1" parent="1">
          <mxGeometry x="880" y="716" width="92" height="33" as="geometry" />
        </mxCell>
        <mxCell id="eKCD0eh1Yr5J9AccJsgl-58" value="" style="endArrow=classic;html=1;rounded=0;" edge="1" parent="1" source="eKCD0eh1Yr5J9AccJsgl-54" target="eKCD0eh1Yr5J9AccJsgl-57">
          <mxGeometry width="50" height="50" relative="1" as="geometry">
            <mxPoint x="836" y="816" as="sourcePoint" />
            <mxPoint x="886" y="766" as="targetPoint" />
          </mxGeometry>
        </mxCell>
        <mxCell id="eKCD0eh1Yr5J9AccJsgl-59" value="Son" style="edgeLabel;html=1;align=center;verticalAlign=middle;resizable=0;points=[];" vertex="1" connectable="0" parent="eKCD0eh1Yr5J9AccJsgl-58">
          <mxGeometry x="-0.0826" y="1" relative="1" as="geometry">
            <mxPoint as="offset" />
          </mxGeometry>
        </mxCell>
        <mxCell id="eKCD0eh1Yr5J9AccJsgl-60" value="" style="endArrow=classic;html=1;rounded=0;" edge="1" parent="1" source="eKCD0eh1Yr5J9AccJsgl-14" target="eKCD0eh1Yr5J9AccJsgl-24">
          <mxGeometry width="50" height="50" relative="1" as="geometry">
            <mxPoint x="435" y="567" as="sourcePoint" />
            <mxPoint x="485" y="517" as="targetPoint" />
          </mxGeometry>
        </mxCell>
        <mxCell id="eKCD0eh1Yr5J9AccJsgl-61" value="Daughter" style="edgeLabel;html=1;align=center;verticalAlign=middle;resizable=0;points=[];" vertex="1" connectable="0" parent="eKCD0eh1Yr5J9AccJsgl-60">
          <mxGeometry x="-0.3589" relative="1" as="geometry">
            <mxPoint as="offset" />
          </mxGeometry>
        </mxCell>
        <mxCell id="eKCD0eh1Yr5J9AccJsgl-62" value="Deaf child&lt;br&gt;Elisabeth" style="rounded=0;whiteSpace=wrap;html=1;" vertex="1" parent="1">
          <mxGeometry x="248" y="861" width="125" height="41" as="geometry" />
        </mxCell>
        <mxCell id="eKCD0eh1Yr5J9AccJsgl-63" value="" style="endArrow=classic;html=1;rounded=0;" edge="1" parent="1" source="eKCD0eh1Yr5J9AccJsgl-24" target="eKCD0eh1Yr5J9AccJsgl-62">
          <mxGeometry width="50" height="50" relative="1" as="geometry">
            <mxPoint x="508" y="756" as="sourcePoint" />
            <mxPoint x="558" y="706" as="targetPoint" />
          </mxGeometry>
        </mxCell>
        <mxCell id="eKCD0eh1Yr5J9AccJsgl-78" value="Daughter" style="edgeLabel;html=1;align=center;verticalAlign=middle;resizable=0;points=[];" vertex="1" connectable="0" parent="eKCD0eh1Yr5J9AccJsgl-63">
          <mxGeometry x="-0.1388" relative="1" as="geometry">
            <mxPoint as="offset" />
          </mxGeometry>
        </mxCell>
        <mxCell id="eKCD0eh1Yr5J9AccJsgl-64" value="Ines&lt;br&gt;some nurse" style="rounded=0;whiteSpace=wrap;html=1;" vertex="1" parent="1">
          <mxGeometry x="905" y="462" width="97" height="45" as="geometry" />
        </mxCell>
        <mxCell id="eKCD0eh1Yr5J9AccJsgl-65" value="" style="endArrow=classic;html=1;rounded=0;" edge="1" parent="1" source="eKCD0eh1Yr5J9AccJsgl-64" target="eKCD0eh1Yr5J9AccJsgl-9">
          <mxGeometry width="50" height="50" relative="1" as="geometry">
            <mxPoint x="634" y="591" as="sourcePoint" />
            <mxPoint x="684" y="541" as="targetPoint" />
          </mxGeometry>
        </mxCell>
        <mxCell id="eKCD0eh1Yr5J9AccJsgl-66" value="Takes car of" style="edgeLabel;html=1;align=center;verticalAlign=middle;resizable=0;points=[];" vertex="1" connectable="0" parent="eKCD0eh1Yr5J9AccJsgl-65">
          <mxGeometry x="0.1164" y="-2" relative="1" as="geometry">
            <mxPoint as="offset" />
          </mxGeometry>
        </mxCell>
        <mxCell id="eKCD0eh1Yr5J9AccJsgl-67" value="Magus" style="rounded=0;whiteSpace=wrap;html=1;" vertex="1" parent="1">
          <mxGeometry x="966" y="332" width="120" height="60" as="geometry" />
        </mxCell>
        <mxCell id="eKCD0eh1Yr5J9AccJsgl-68" value="Martha(emotional lady)" style="rounded=0;whiteSpace=wrap;html=1;" vertex="1" parent="1">
          <mxGeometry x="532" y="195" width="140" height="42" as="geometry" />
        </mxCell>
        <mxCell id="eKCD0eh1Yr5J9AccJsgl-69" value="" style="endArrow=classic;html=1;rounded=0;" edge="1" parent="1" source="eKCD0eh1Yr5J9AccJsgl-7" target="eKCD0eh1Yr5J9AccJsgl-68">
          <mxGeometry width="50" height="50" relative="1" as="geometry">
            <mxPoint x="892" y="399" as="sourcePoint" />
            <mxPoint x="942" y="349" as="targetPoint" />
            <Array as="points" />
          </mxGeometry>
        </mxCell>
        <mxCell id="eKCD0eh1Yr5J9AccJsgl-71" value="Daughter" style="edgeLabel;html=1;align=center;verticalAlign=middle;resizable=0;points=[];" vertex="1" connectable="0" parent="eKCD0eh1Yr5J9AccJsgl-69">
          <mxGeometry x="0.1165" y="-1" relative="1" as="geometry">
            <mxPoint as="offset" />
          </mxGeometry>
        </mxCell>
        <mxCell id="eKCD0eh1Yr5J9AccJsgl-70" value="" style="endArrow=classic;html=1;rounded=0;" edge="1" parent="1" source="eKCD0eh1Yr5J9AccJsgl-7" target="eKCD0eh1Yr5J9AccJsgl-67">
          <mxGeometry width="50" height="50" relative="1" as="geometry">
            <mxPoint x="892" y="399" as="sourcePoint" />
            <mxPoint x="942" y="349" as="targetPoint" />
          </mxGeometry>
        </mxCell>
        <mxCell id="eKCD0eh1Yr5J9AccJsgl-72" value="Son" style="edgeLabel;html=1;align=center;verticalAlign=middle;resizable=0;points=[];" vertex="1" connectable="0" parent="eKCD0eh1Yr5J9AccJsgl-70">
          <mxGeometry x="0.1539" y="1" relative="1" as="geometry">
            <mxPoint as="offset" />
          </mxGeometry>
        </mxCell>
        <mxCell id="eKCD0eh1Yr5J9AccJsgl-75" value="Franciska" style="rounded=0;whiteSpace=wrap;html=1;" vertex="1" parent="1">
          <mxGeometry x="396" y="906" width="120" height="60" as="geometry" />
        </mxCell>
        <mxCell id="eKCD0eh1Yr5J9AccJsgl-76" value="" style="endArrow=classic;html=1;rounded=0;" edge="1" parent="1" source="eKCD0eh1Yr5J9AccJsgl-24" target="eKCD0eh1Yr5J9AccJsgl-75">
          <mxGeometry width="50" height="50" relative="1" as="geometry">
            <mxPoint x="617" y="633" as="sourcePoint" />
            <mxPoint x="667" y="583" as="targetPoint" />
          </mxGeometry>
        </mxCell>
        <mxCell id="eKCD0eh1Yr5J9AccJsgl-79" value="Daughter" style="edgeLabel;html=1;align=center;verticalAlign=middle;resizable=0;points=[];" vertex="1" connectable="0" parent="eKCD0eh1Yr5J9AccJsgl-76">
          <mxGeometry x="-0.2073" y="3" relative="1" as="geometry">
            <mxPoint x="1" y="4" as="offset" />
          </mxGeometry>
        </mxCell>
        <mxCell id="eKCD0eh1Yr5J9AccJsgl-77" value="Cockman&lt;br&gt;Peter" style="rounded=0;whiteSpace=wrap;html=1;" vertex="1" parent="1">
          <mxGeometry x="597" y="906" width="115" height="42" as="geometry" />
        </mxCell>
        <mxCell id="eKCD0eh1Yr5J9AccJsgl-80" value="" style="endArrow=classic;html=1;rounded=0;" edge="1" parent="1" source="eKCD0eh1Yr5J9AccJsgl-24" target="eKCD0eh1Yr5J9AccJsgl-77">
          <mxGeometry width="50" height="50" relative="1" as="geometry">
            <mxPoint x="683" y="820" as="sourcePoint" />
            <mxPoint x="733" y="770" as="targetPoint" />
          </mxGeometry>
        </mxCell>
        <mxCell id="eKCD0eh1Yr5J9AccJsgl-81" value="husband" style="edgeLabel;html=1;align=center;verticalAlign=middle;resizable=0;points=[];" vertex="1" connectable="0" parent="eKCD0eh1Yr5J9AccJsgl-80">
          <mxGeometry x="-0.2087" y="3" relative="1" as="geometry">
            <mxPoint as="offset" />
          </mxGeometry>
        </mxCell>
        <mxCell id="eKCD0eh1Yr5J9AccJsgl-82" value="Hannah" style="rounded=0;whiteSpace=wrap;html=1;" vertex="1" parent="1">
          <mxGeometry x="396" y="521" width="99" height="42" as="geometry" />
        </mxCell>
        <mxCell id="eKCD0eh1Yr5J9AccJsgl-83" value="" style="endArrow=classic;html=1;rounded=0;" edge="1" parent="1" source="eKCD0eh1Yr5J9AccJsgl-82" target="eKCD0eh1Yr5J9AccJsgl-9">
          <mxGeometry width="50" height="50" relative="1" as="geometry">
            <mxPoint x="774" y="460" as="sourcePoint" />
            <mxPoint x="824" y="410" as="targetPoint" />
          </mxGeometry>
        </mxCell>
        <mxCell id="eKCD0eh1Yr5J9AccJsgl-84" value="Husband" style="edgeLabel;html=1;align=center;verticalAlign=middle;resizable=0;points=[];" vertex="1" connectable="0" parent="eKCD0eh1Yr5J9AccJsgl-83">
          <mxGeometry x="-0.0114" y="-2" relative="1" as="geometry">
            <mxPoint as="offset" />
          </mxGeometry>
        </mxCell>
        <mxCell id="eKCD0eh1Yr5J9AccJsgl-85" value="" style="endArrow=classic;html=1;rounded=0;" edge="1" parent="1" source="eKCD0eh1Yr5J9AccJsgl-7" target="eKCD0eh1Yr5J9AccJsgl-82">
          <mxGeometry width="50" height="50" relative="1" as="geometry">
            <mxPoint x="774" y="460" as="sourcePoint" />
            <mxPoint x="824" y="410" as="targetPoint" />
          </mxGeometry>
        </mxCell>
        <mxCell id="eKCD0eh1Yr5J9AccJsgl-86" value="Fucks" style="edgeLabel;html=1;align=center;verticalAlign=middle;resizable=0;points=[];" vertex="1" connectable="0" parent="eKCD0eh1Yr5J9AccJsgl-85">
          <mxGeometry x="-0.0949" y="1" relative="1" as="geometry">
            <mxPoint x="16" y="-33" as="offset" />
          </mxGeometry>
        </mxCell>
        <mxCell id="eKCD0eh1Yr5J9AccJsgl-87" value="Helge" style="rounded=0;whiteSpace=wrap;html=1;" vertex="1" parent="1">
          <mxGeometry x="822" y="883" width="120" height="60" as="geometry" />
        </mxCell>
        <mxCell id="eKCD0eh1Yr5J9AccJsgl-91" value="" style="endArrow=classic;html=1;rounded=0;" edge="1" parent="1" source="eKCD0eh1Yr5J9AccJsgl-54" target="eKCD0eh1Yr5J9AccJsgl-6">
          <mxGeometry width="50" height="50" relative="1" as="geometry">
            <mxPoint x="763" y="695" as="sourcePoint" />
            <mxPoint x="813" y="645" as="targetPoint" />
          </mxGeometry>
        </mxCell>
        <mxCell id="eKCD0eh1Yr5J9AccJsgl-92" value="husband" style="edgeLabel;html=1;align=center;verticalAlign=middle;resizable=0;points=[];" vertex="1" connectable="0" parent="eKCD0eh1Yr5J9AccJsgl-91">
          <mxGeometry x="0.0138" y="-2" relative="1" as="geometry">
            <mxPoint x="-4" y="-4" as="offset" />
          </mxGeometry>
        </mxCell>
        <mxCell id="eKCD0eh1Yr5J9AccJsgl-93" value="Agnes &lt;br&gt;Nilsen" style="rounded=0;whiteSpace=wrap;html=1;" vertex="1" parent="1">
          <mxGeometry x="783" y="112" width="120" height="60" as="geometry" />
        </mxCell>
        <mxCell id="eKCD0eh1Yr5J9AccJsgl-94" value="" style="endArrow=classic;html=1;rounded=0;" edge="1" parent="1" source="eKCD0eh1Yr5J9AccJsgl-62" target="eKCD0eh1Yr5J9AccJsgl-24">
          <mxGeometry width="50" height="50" relative="1" as="geometry">
            <mxPoint x="516" y="881" as="sourcePoint" />
            <mxPoint x="566" y="831" as="targetPoint" />
            <Array as="points">
              <mxPoint x="283" y="809" />
            </Array>
          </mxGeometry>
        </mxCell>
        <mxCell id="eKCD0eh1Yr5J9AccJsgl-95" value="Mother" style="edgeLabel;html=1;align=center;verticalAlign=middle;resizable=0;points=[];" vertex="1" connectable="0" parent="eKCD0eh1Yr5J9AccJsgl-94">
          <mxGeometry x="0.2781" y="1" relative="1" as="geometry">
            <mxPoint as="offset" />
          </mxGeometry>
        </mxCell>
        <mxCell id="eKCD0eh1Yr5J9AccJsgl-96" value="" style="endArrow=classic;html=1;rounded=0;" edge="1" parent="1" source="eKCD0eh1Yr5J9AccJsgl-93" target="eKCD0eh1Yr5J9AccJsgl-14">
          <mxGeometry width="50" height="50" relative="1" as="geometry">
            <mxPoint x="378" y="421" as="sourcePoint" />
            <mxPoint x="428" y="371" as="targetPoint" />
          </mxGeometry>
        </mxCell>
        <mxCell id="eKCD0eh1Yr5J9AccJsgl-97" value="kills" style="edgeLabel;html=1;align=center;verticalAlign=middle;resizable=0;points=[];" vertex="1" connectable="0" parent="eKCD0eh1Yr5J9AccJsgl-96">
          <mxGeometry x="-0.3746" y="3" relative="1" as="geometry">
            <mxPoint x="42" y="-15" as="offset" />
          </mxGeometry>
        </mxCell>
        <mxCell id="eKCD0eh1Yr5J9AccJsgl-98" value="" style="endArrow=classic;html=1;rounded=0;" edge="1" parent="1" source="eKCD0eh1Yr5J9AccJsgl-5" target="eKCD0eh1Yr5J9AccJsgl-68">
          <mxGeometry width="50" height="50" relative="1" as="geometry">
            <mxPoint x="417" y="410" as="sourcePoint" />
            <mxPoint x="467" y="360" as="targetPoint" />
          </mxGeometry>
        </mxCell>
        <mxCell id="eKCD0eh1Yr5J9AccJsgl-100" value="Master key&lt;br&gt;boy" style="rounded=0;whiteSpace=wrap;html=1;" vertex="1" parent="1">
          <mxGeometry x="1664" y="296" width="120" height="60" as="geometry" />
        </mxCell>
        <mxCell id="eKCD0eh1Yr5J9AccJsgl-101" value="Origin ?&lt;br&gt;Master key&lt;br&gt;man" style="rounded=0;whiteSpace=wrap;html=1;" vertex="1" parent="1">
          <mxGeometry x="1664" y="407" width="120" height="60" as="geometry" />
        </mxCell>
        <mxCell id="eKCD0eh1Yr5J9AccJsgl-102" value="Master key&lt;br&gt;old man" style="rounded=0;whiteSpace=wrap;html=1;" vertex="1" parent="1">
          <mxGeometry x="1664" y="521" width="120" height="60" as="geometry" />
        </mxCell>
        <mxCell id="eKCD0eh1Yr5J9AccJsgl-103" value="Universe 2&lt;br&gt;martha" style="rounded=0;whiteSpace=wrap;html=1;" vertex="1" parent="1">
          <mxGeometry x="1173" y="-43" width="120" height="60" as="geometry" />
        </mxCell>
        <mxCell id="eKCD0eh1Yr5J9AccJsgl-104" value="" style="endArrow=classic;html=1;rounded=0;" edge="1" parent="1" source="eKCD0eh1Yr5J9AccJsgl-103" target="eKCD0eh1Yr5J9AccJsgl-1">
          <mxGeometry width="50" height="50" relative="1" as="geometry">
            <mxPoint x="947" y="463" as="sourcePoint" />
            <mxPoint x="997" y="413" as="targetPoint" />
          </mxGeometry>
        </mxCell>
        <mxCell id="eKCD0eh1Yr5J9AccJsgl-105" value="saves with time machine" style="edgeLabel;html=1;align=center;verticalAlign=middle;resizable=0;points=[];" vertex="1" connectable="0" parent="eKCD0eh1Yr5J9AccJsgl-104">
          <mxGeometry x="-0.8467" y="1" relative="1" as="geometry">
            <mxPoint x="-45" y="-4" as="offset" />
          </mxGeometry>
        </mxCell>
        <mxCell id="eKCD0eh1Yr5J9AccJsgl-106" value="Old man ?" style="rounded=0;whiteSpace=wrap;html=1;" vertex="1" parent="1">
          <mxGeometry x="1419" y="404.5" width="120" height="60" as="geometry" />
        </mxCell>
        <mxCell id="eKCD0eh1Yr5J9AccJsgl-107" value="" style="endArrow=classic;html=1;rounded=0;" edge="1" parent="1" source="eKCD0eh1Yr5J9AccJsgl-101" target="eKCD0eh1Yr5J9AccJsgl-106">
          <mxGeometry width="50" height="50" relative="1" as="geometry">
            <mxPoint x="1559" y="510" as="sourcePoint" />
            <mxPoint x="1609" y="460" as="targetPoint" />
          </mxGeometry>
        </mxCell>
        <mxCell id="eKCD0eh1Yr5J9AccJsgl-108" value="Kills in 1987" style="edgeLabel;html=1;align=center;verticalAlign=middle;resizable=0;points=[];" vertex="1" connectable="0" parent="eKCD0eh1Yr5J9AccJsgl-107">
          <mxGeometry x="0.086" y="-1" relative="1" as="geometry">
            <mxPoint as="offset" />
          </mxGeometry>
        </mxCell>
        <mxCell id="eKCD0eh1Yr5J9AccJsgl-109" value="Universe 2 Hannah" style="rounded=0;whiteSpace=wrap;html=1;" vertex="1" parent="1">
          <mxGeometry x="1659" y="68" width="130" height="39" as="geometry" />
        </mxCell>
        <mxCell id="eKCD0eh1Yr5J9AccJsgl-110" value="Universe 2 ulrich" style="rounded=0;whiteSpace=wrap;html=1;" vertex="1" parent="1">
          <mxGeometry x="1695" y="185" width="116" height="41.5" as="geometry" />
        </mxCell>
        <mxCell id="eKCD0eh1Yr5J9AccJsgl-112" value="" style="endArrow=classic;startArrow=classic;html=1;rounded=0;" edge="1" parent="1" source="eKCD0eh1Yr5J9AccJsgl-109" target="eKCD0eh1Yr5J9AccJsgl-110">
          <mxGeometry width="50" height="50" relative="1" as="geometry">
            <mxPoint x="1800" y="213" as="sourcePoint" />
            <mxPoint x="1690" y="198" as="targetPoint" />
          </mxGeometry>
        </mxCell>
        <mxCell id="eKCD0eh1Yr5J9AccJsgl-113" value="Married" style="edgeLabel;html=1;align=center;verticalAlign=middle;resizable=0;points=[];" vertex="1" connectable="0" parent="eKCD0eh1Yr5J9AccJsgl-112">
          <mxGeometry x="0.2015" y="-2" relative="1" as="geometry">
            <mxPoint x="-9" y="-1" as="offset" />
          </mxGeometry>
        </mxCell>
        <mxCell id="eKCD0eh1Yr5J9AccJsgl-114" value="Katrihna" style="rounded=0;whiteSpace=wrap;html=1;" vertex="1" parent="1">
          <mxGeometry x="1870" y="85" width="120" height="60" as="geometry" />
        </mxCell>
        <mxCell id="eKCD0eh1Yr5J9AccJsgl-115" value="" style="endArrow=classic;startArrow=classic;html=1;rounded=0;" edge="1" parent="1" source="eKCD0eh1Yr5J9AccJsgl-110" target="eKCD0eh1Yr5J9AccJsgl-114">
          <mxGeometry width="50" height="50" relative="1" as="geometry">
            <mxPoint x="1835" y="225" as="sourcePoint" />
            <mxPoint x="1885" y="175" as="targetPoint" />
          </mxGeometry>
        </mxCell>
        <mxCell id="eKCD0eh1Yr5J9AccJsgl-116" value="Previous wife" style="edgeLabel;html=1;align=center;verticalAlign=middle;resizable=0;points=[];" vertex="1" connectable="0" parent="eKCD0eh1Yr5J9AccJsgl-115">
          <mxGeometry x="-0.0543" y="2" relative="1" as="geometry">
            <mxPoint as="offset" />
          </mxGeometry>
        </mxCell>
        <mxCell id="eKCD0eh1Yr5J9AccJsgl-117" value="Universe 2 Old martha" style="rounded=0;whiteSpace=wrap;html=1;" vertex="1" parent="1">
          <mxGeometry x="1353" y="45" width="121" height="50" as="geometry" />
        </mxCell>
        <mxCell id="eKCD0eh1Yr5J9AccJsgl-119" value="" style="endArrow=classic;html=1;rounded=0;" edge="1" parent="1" source="eKCD0eh1Yr5J9AccJsgl-1" target="eKCD0eh1Yr5J9AccJsgl-117">
          <mxGeometry width="50" height="50" relative="1" as="geometry">
            <mxPoint x="216" y="693" as="sourcePoint" />
            <mxPoint x="266" y="643" as="targetPoint" />
          </mxGeometry>
        </mxCell>
        <mxCell id="eKCD0eh1Yr5J9AccJsgl-120" value="Meet in universe2&lt;br&gt;2019" style="edgeLabel;html=1;align=center;verticalAlign=middle;resizable=0;points=[];" vertex="1" connectable="0" parent="eKCD0eh1Yr5J9AccJsgl-119">
          <mxGeometry x="0.1042" y="2" relative="1" as="geometry">
            <mxPoint as="offset" />
          </mxGeometry>
        </mxCell>
        <mxCell id="eKCD0eh1Yr5J9AccJsgl-121" value="&lt;div&gt;Man Jonas&lt;br&gt;year: 1888&lt;/div&gt;" style="rounded=0;whiteSpace=wrap;html=1;" vertex="1" parent="1">
          <mxGeometry x="1312" y="-220" width="120" height="60" as="geometry" />
        </mxCell>
        <mxCell id="eKCD0eh1Yr5J9AccJsgl-122" value="" style="endArrow=classic;html=1;rounded=0;" edge="1" parent="1" source="eKCD0eh1Yr5J9AccJsgl-103" target="eKCD0eh1Yr5J9AccJsgl-121">
          <mxGeometry width="50" height="50" relative="1" as="geometry">
            <mxPoint x="1269" y="-190" as="sourcePoint" />
            <mxPoint x="1319" y="-240" as="targetPoint" />
          </mxGeometry>
        </mxCell>
        <mxCell id="eKCD0eh1Yr5J9AccJsgl-123" value="Meets" style="edgeLabel;html=1;align=center;verticalAlign=middle;resizable=0;points=[];" vertex="1" connectable="0" parent="eKCD0eh1Yr5J9AccJsgl-122">
          <mxGeometry x="0.2786" y="-1" relative="1" as="geometry">
            <mxPoint x="18" y="1" as="offset" />
          </mxGeometry>
        </mxCell>
        <mxCell id="eKCD0eh1Yr5J9AccJsgl-133" value="" style="endArrow=classic;html=1;rounded=0;" edge="1" parent="1" source="eKCD0eh1Yr5J9AccJsgl-42" target="eKCD0eh1Yr5J9AccJsgl-93">
          <mxGeometry width="50" height="50" relative="1" as="geometry">
            <mxPoint x="710" y="311" as="sourcePoint" />
            <mxPoint x="760" y="261" as="targetPoint" />
          </mxGeometry>
        </mxCell>
        <mxCell id="eKCD0eh1Yr5J9AccJsgl-134" value="Mother" style="edgeLabel;html=1;align=center;verticalAlign=middle;resizable=0;points=[];" vertex="1" connectable="0" parent="eKCD0eh1Yr5J9AccJsgl-133">
          <mxGeometry x="-0.1237" y="-1" relative="1" as="geometry">
            <mxPoint x="1" as="offset" />
          </mxGeometry>
        </mxCell>
        <mxCell id="eKCD0eh1Yr5J9AccJsgl-136" value="Claudias assistant" style="rounded=0;whiteSpace=wrap;html=1;" vertex="1" parent="1">
          <mxGeometry x="1264" y="265" width="130" height="39" as="geometry" />
        </mxCell>
        <mxCell id="eKCD0eh1Yr5J9AccJsgl-137" value="" style="endArrow=classic;html=1;rounded=0;" edge="1" parent="1" source="eKCD0eh1Yr5J9AccJsgl-101" target="eKCD0eh1Yr5J9AccJsgl-136">
          <mxGeometry width="50" height="50" relative="1" as="geometry">
            <mxPoint x="1448" y="322" as="sourcePoint" />
            <mxPoint x="1498" y="272" as="targetPoint" />
          </mxGeometry>
        </mxCell>
        <mxCell id="eKCD0eh1Yr5J9AccJsgl-139" value="kills" style="edgeLabel;html=1;align=center;verticalAlign=middle;resizable=0;points=[];" vertex="1" connectable="0" parent="eKCD0eh1Yr5J9AccJsgl-137">
          <mxGeometry x="0.0839" y="-2" relative="1" as="geometry">
            <mxPoint x="-3" y="-1" as="offset" />
          </mxGeometry>
        </mxCell>
        <mxCell id="eKCD0eh1Yr5J9AccJsgl-140" value="Tronte&lt;br&gt;nilsen" style="rounded=0;whiteSpace=wrap;html=1;" vertex="1" parent="1">
          <mxGeometry x="1029" y="577" width="107" height="38.25" as="geometry" />
        </mxCell>
        <mxCell id="eKCD0eh1Yr5J9AccJsgl-141" value="" style="endArrow=classic;html=1;rounded=0;" edge="1" parent="1" source="eKCD0eh1Yr5J9AccJsgl-140" target="eKCD0eh1Yr5J9AccJsgl-54">
          <mxGeometry width="50" height="50" relative="1" as="geometry">
            <mxPoint x="1069" y="293" as="sourcePoint" />
            <mxPoint x="1119" y="243" as="targetPoint" />
          </mxGeometry>
        </mxCell>
        <mxCell id="eKCD0eh1Yr5J9AccJsgl-142" value="Kills" style="edgeLabel;html=1;align=center;verticalAlign=middle;resizable=0;points=[];" vertex="1" connectable="0" parent="eKCD0eh1Yr5J9AccJsgl-141">
          <mxGeometry x="0.0103" y="2" relative="1" as="geometry">
            <mxPoint x="1" y="-6" as="offset" />
          </mxGeometry>
        </mxCell>
        <mxCell id="eKCD0eh1Yr5J9AccJsgl-143" value="Grazy&lt;span style=&quot;background-color: initial;&quot;&gt;&amp;nbsp;person house&lt;/span&gt;" style="rounded=0;whiteSpace=wrap;html=1;" vertex="1" parent="1">
          <mxGeometry x="942" y="169" width="130" height="32" as="geometry" />
        </mxCell>
        <mxCell id="eKCD0eh1Yr5J9AccJsgl-144" value="" style="endArrow=classic;html=1;rounded=0;" edge="1" parent="1" source="eKCD0eh1Yr5J9AccJsgl-93" target="eKCD0eh1Yr5J9AccJsgl-143">
          <mxGeometry width="50" height="50" relative="1" as="geometry">
            <mxPoint x="876" y="289" as="sourcePoint" />
            <mxPoint x="926" y="239" as="targetPoint" />
          </mxGeometry>
        </mxCell>
        <mxCell id="eKCD0eh1Yr5J9AccJsgl-146" value="&lt;p style=&quot;margin: 0px; font-variant-numeric: normal; font-variant-east-asian: normal; font-variant-alternates: normal; font-kerning: auto; font-optical-sizing: auto; font-feature-settings: normal; font-variation-settings: normal; font-variant-position: normal; font-stretch: normal; font-size: 13px; line-height: normal; font-family: &amp;quot;Helvetica Neue&amp;quot;; text-align: start;&quot; class=&quot;p1&quot;&gt;Old tannatus&lt;/p&gt;" style="rounded=0;whiteSpace=wrap;html=1;" vertex="1" parent="1">
          <mxGeometry x="777" y="1019" width="120" height="60" as="geometry" />
        </mxCell>
        <mxCell id="eKCD0eh1Yr5J9AccJsgl-147" value="Young tannatus" style="rounded=0;whiteSpace=wrap;html=1;" vertex="1" parent="1">
          <mxGeometry x="542" y="1090" width="120" height="60" as="geometry" />
        </mxCell>
        <mxCell id="eKCD0eh1Yr5J9AccJsgl-148" value="Father telling about travellers" style="rounded=0;whiteSpace=wrap;html=1;" vertex="1" parent="1">
          <mxGeometry x="542" y="1239" width="120" height="60" as="geometry" />
        </mxCell>
        <mxCell id="eKCD0eh1Yr5J9AccJsgl-149" value="" style="endArrow=classic;html=1;rounded=0;" edge="1" parent="1" source="eKCD0eh1Yr5J9AccJsgl-147" target="eKCD0eh1Yr5J9AccJsgl-148">
          <mxGeometry width="50" height="50" relative="1" as="geometry">
            <mxPoint x="691" y="1167" as="sourcePoint" />
            <mxPoint x="741" y="1117" as="targetPoint" />
          </mxGeometry>
        </mxCell>
        <mxCell id="eKCD0eh1Yr5J9AccJsgl-150" value="Father" style="edgeLabel;html=1;align=center;verticalAlign=middle;resizable=0;points=[];" vertex="1" connectable="0" parent="eKCD0eh1Yr5J9AccJsgl-149">
          <mxGeometry x="-0.2823" y="-1" relative="1" as="geometry">
            <mxPoint as="offset" />
          </mxGeometry>
        </mxCell>
        <mxCell id="eKCD0eh1Yr5J9AccJsgl-151" value="" style="endArrow=classic;html=1;rounded=0;" edge="1" parent="1" source="eKCD0eh1Yr5J9AccJsgl-147" target="eKCD0eh1Yr5J9AccJsgl-146">
          <mxGeometry width="50" height="50" relative="1" as="geometry">
            <mxPoint x="691" y="1167" as="sourcePoint" />
            <mxPoint x="741" y="1117" as="targetPoint" />
          </mxGeometry>
        </mxCell>
        <mxCell id="eKCD0eh1Yr5J9AccJsgl-152" value="Becomes" style="edgeLabel;html=1;align=center;verticalAlign=middle;resizable=0;points=[];" vertex="1" connectable="0" parent="eKCD0eh1Yr5J9AccJsgl-151">
          <mxGeometry x="-0.1747" y="2" relative="1" as="geometry">
            <mxPoint as="offset" />
          </mxGeometry>
        </mxCell>
        <mxCell id="eKCD0eh1Yr5J9AccJsgl-153" value="" style="endArrow=classic;html=1;rounded=0;" edge="1" parent="1" source="eKCD0eh1Yr5J9AccJsgl-101" target="eKCD0eh1Yr5J9AccJsgl-146">
          <mxGeometry width="50" height="50" relative="1" as="geometry">
            <mxPoint x="1210" y="732" as="sourcePoint" />
            <mxPoint x="1260" y="682" as="targetPoint" />
          </mxGeometry>
        </mxCell>
        <mxCell id="eKCD0eh1Yr5J9AccJsgl-154" value="Kills in 1988" style="edgeLabel;html=1;align=center;verticalAlign=middle;resizable=0;points=[];" vertex="1" connectable="0" parent="eKCD0eh1Yr5J9AccJsgl-153">
          <mxGeometry x="-0.0115" y="-2" relative="1" as="geometry">
            <mxPoint as="offset" />
          </mxGeometry>
        </mxCell>
        <mxCell id="eKCD0eh1Yr5J9AccJsgl-156" value="" style="endArrow=classic;startArrow=classic;html=1;rounded=0;" edge="1" parent="1" source="eKCD0eh1Yr5J9AccJsgl-102" target="eKCD0eh1Yr5J9AccJsgl-101">
          <mxGeometry width="50" height="50" relative="1" as="geometry">
            <mxPoint x="1694" y="470" as="sourcePoint" />
            <mxPoint x="1744" y="420" as="targetPoint" />
          </mxGeometry>
        </mxCell>
        <mxCell id="eKCD0eh1Yr5J9AccJsgl-157" value="Same person ?" style="edgeLabel;html=1;align=center;verticalAlign=middle;resizable=0;points=[];" vertex="1" connectable="0" parent="eKCD0eh1Yr5J9AccJsgl-156">
          <mxGeometry x="-0.0679" y="-1" relative="1" as="geometry">
            <mxPoint as="offset" />
          </mxGeometry>
        </mxCell>
        <mxCell id="eKCD0eh1Yr5J9AccJsgl-158" value="" style="endArrow=classic;startArrow=classic;html=1;rounded=0;" edge="1" parent="1" source="eKCD0eh1Yr5J9AccJsgl-100" target="eKCD0eh1Yr5J9AccJsgl-101">
          <mxGeometry width="50" height="50" relative="1" as="geometry">
            <mxPoint x="1694" y="470" as="sourcePoint" />
            <mxPoint x="1744" y="420" as="targetPoint" />
          </mxGeometry>
        </mxCell>
        <mxCell id="eKCD0eh1Yr5J9AccJsgl-159" value="Same person ?" style="edgeLabel;html=1;align=center;verticalAlign=middle;resizable=0;points=[];" vertex="1" connectable="0" parent="eKCD0eh1Yr5J9AccJsgl-158">
          <mxGeometry x="-0.1016" relative="1" as="geometry">
            <mxPoint as="offset" />
          </mxGeometry>
        </mxCell>
        <mxCell id="eKCD0eh1Yr5J9AccJsgl-160" value="Old claudia" style="rounded=0;whiteSpace=wrap;html=1;" vertex="1" parent="1">
          <mxGeometry x="1050" y="481" width="120" height="60" as="geometry" />
        </mxCell>
        <mxCell id="eKCD0eh1Yr5J9AccJsgl-161" value="" style="endArrow=classic;html=1;rounded=0;" edge="1" parent="1" source="eKCD0eh1Yr5J9AccJsgl-48" target="eKCD0eh1Yr5J9AccJsgl-160">
          <mxGeometry width="50" height="50" relative="1" as="geometry">
            <mxPoint x="969" y="570" as="sourcePoint" />
            <mxPoint x="1019" y="520" as="targetPoint" />
          </mxGeometry>
        </mxCell>
        <mxCell id="eKCD0eh1Yr5J9AccJsgl-162" value="&lt;font style=&quot;font-size: 20px;&quot;&gt;&lt;b&gt;1954&lt;/b&gt;&lt;/font&gt;" style="rounded=0;whiteSpace=wrap;html=1;" vertex="1" parent="1">
          <mxGeometry x="1138" y="332" width="120" height="60" as="geometry" />
        </mxCell>
        <mxCell id="eKCD0eh1Yr5J9AccJsgl-163" value="" style="endArrow=classic;html=1;rounded=0;" edge="1" parent="1" source="eKCD0eh1Yr5J9AccJsgl-160" target="eKCD0eh1Yr5J9AccJsgl-162">
          <mxGeometry width="50" height="50" relative="1" as="geometry">
            <mxPoint x="1270" y="485" as="sourcePoint" />
            <mxPoint x="1320" y="435" as="targetPoint" />
          </mxGeometry>
        </mxCell>
        <mxCell id="eKCD0eh1Yr5J9AccJsgl-164" value="Dies" style="edgeLabel;html=1;align=center;verticalAlign=middle;resizable=0;points=[];" vertex="1" connectable="0" parent="eKCD0eh1Yr5J9AccJsgl-163">
          <mxGeometry x="-0.1118" y="4" relative="1" as="geometry">
            <mxPoint as="offset" />
          </mxGeometry>
        </mxCell>
        <mxCell id="eKCD0eh1Yr5J9AccJsgl-166" value="Dopler family" style="rounded=0;whiteSpace=wrap;html=1;" vertex="1" parent="1">
          <mxGeometry x="1151" y="945" width="120" height="60" as="geometry" />
        </mxCell>
        <mxCell id="eKCD0eh1Yr5J9AccJsgl-167" value="Old helge" style="rounded=0;whiteSpace=wrap;html=1;" vertex="1" parent="1">
          <mxGeometry x="1040" y="760" width="120" height="60" as="geometry" />
        </mxCell>
        <mxCell id="eKCD0eh1Yr5J9AccJsgl-170" value="" style="endArrow=classic;html=1;rounded=0;" edge="1" parent="1" source="eKCD0eh1Yr5J9AccJsgl-167" target="eKCD0eh1Yr5J9AccJsgl-87">
          <mxGeometry width="50" height="50" relative="1" as="geometry">
            <mxPoint x="1033" y="944" as="sourcePoint" />
            <mxPoint x="1083" y="894" as="targetPoint" />
          </mxGeometry>
        </mxCell>
        <mxCell id="eKCD0eh1Yr5J9AccJsgl-171" value="Tries to kill in 1986" style="edgeLabel;html=1;align=center;verticalAlign=middle;resizable=0;points=[];" vertex="1" connectable="0" parent="eKCD0eh1Yr5J9AccJsgl-170">
          <mxGeometry x="0.0031" relative="1" as="geometry">
            <mxPoint as="offset" />
          </mxGeometry>
        </mxCell>
        <mxCell id="eKCD0eh1Yr5J9AccJsgl-172" value="Young helge" style="rounded=0;whiteSpace=wrap;html=1;" vertex="1" parent="1">
          <mxGeometry x="735" y="733" width="119" height="49" as="geometry" />
        </mxCell>
        <mxCell id="eKCD0eh1Yr5J9AccJsgl-173" value="" style="endArrow=classic;html=1;rounded=0;" edge="1" parent="1" source="eKCD0eh1Yr5J9AccJsgl-7" target="eKCD0eh1Yr5J9AccJsgl-172">
          <mxGeometry width="50" height="50" relative="1" as="geometry">
            <mxPoint x="743" y="650" as="sourcePoint" />
            <mxPoint x="793" y="600" as="targetPoint" />
          </mxGeometry>
        </mxCell>
        <mxCell id="eKCD0eh1Yr5J9AccJsgl-174" value="Tries to kill" style="edgeLabel;html=1;align=center;verticalAlign=middle;resizable=0;points=[];" vertex="1" connectable="0" parent="eKCD0eh1Yr5J9AccJsgl-173">
          <mxGeometry x="0.416" y="-3" relative="1" as="geometry">
            <mxPoint as="offset" />
          </mxGeometry>
        </mxCell>
        <mxCell id="eKCD0eh1Yr5J9AccJsgl-175" value="" style="endArrow=classic;html=1;rounded=0;" edge="1" parent="1" source="eKCD0eh1Yr5J9AccJsgl-172" target="eKCD0eh1Yr5J9AccJsgl-87">
          <mxGeometry width="50" height="50" relative="1" as="geometry">
            <mxPoint x="921" y="696" as="sourcePoint" />
            <mxPoint x="971" y="646" as="targetPoint" />
          </mxGeometry>
        </mxCell>
        <mxCell id="eKCD0eh1Yr5J9AccJsgl-176" value="Becomes" style="edgeLabel;html=1;align=center;verticalAlign=middle;resizable=0;points=[];" vertex="1" connectable="0" parent="eKCD0eh1Yr5J9AccJsgl-175">
          <mxGeometry x="-0.2113" y="1" relative="1" as="geometry">
            <mxPoint as="offset" />
          </mxGeometry>
        </mxCell>
        <mxCell id="eKCD0eh1Yr5J9AccJsgl-177" value="" style="endArrow=classic;html=1;rounded=0;" edge="1" parent="1" source="eKCD0eh1Yr5J9AccJsgl-87" target="eKCD0eh1Yr5J9AccJsgl-166">
          <mxGeometry width="50" height="50" relative="1" as="geometry">
            <mxPoint x="1043" y="747" as="sourcePoint" />
            <mxPoint x="1093" y="697" as="targetPoint" />
          </mxGeometry>
        </mxCell>
        <mxCell id="eKCD0eh1Yr5J9AccJsgl-178" value="" style="endArrow=classic;html=1;rounded=0;" edge="1" parent="1" source="eKCD0eh1Yr5J9AccJsgl-101" target="eKCD0eh1Yr5J9AccJsgl-117">
          <mxGeometry width="50" height="50" relative="1" as="geometry">
            <mxPoint x="1696" y="463" as="sourcePoint" />
            <mxPoint x="1746" y="413" as="targetPoint" />
          </mxGeometry>
        </mxCell>
        <mxCell id="eKCD0eh1Yr5J9AccJsgl-179" value="Meets" style="edgeLabel;html=1;align=center;verticalAlign=middle;resizable=0;points=[];" vertex="1" connectable="0" parent="eKCD0eh1Yr5J9AccJsgl-178">
          <mxGeometry x="0.0466" y="-2" relative="1" as="geometry">
            <mxPoint as="offset" />
          </mxGeometry>
        </mxCell>
        <mxCell id="eKCD0eh1Yr5J9AccJsgl-180" value="Kilian" style="rounded=0;whiteSpace=wrap;html=1;" vertex="1" parent="1">
          <mxGeometry x="1151" y="141" width="120" height="60" as="geometry" />
        </mxCell>
        <mxCell id="eKCD0eh1Yr5J9AccJsgl-181" value="" style="endArrow=classic;html=1;rounded=0;" edge="1" parent="1" source="eKCD0eh1Yr5J9AccJsgl-103" target="eKCD0eh1Yr5J9AccJsgl-180">
          <mxGeometry width="50" height="50" relative="1" as="geometry">
            <mxPoint x="1416" y="123" as="sourcePoint" />
            <mxPoint x="1466" y="73" as="targetPoint" />
          </mxGeometry>
        </mxCell>
        <mxCell id="eKCD0eh1Yr5J9AccJsgl-182" value="Boyfriend" style="edgeLabel;html=1;align=center;verticalAlign=middle;resizable=0;points=[];" vertex="1" connectable="0" parent="eKCD0eh1Yr5J9AccJsgl-181">
          <mxGeometry x="-0.1011" y="3" relative="1" as="geometry">
            <mxPoint x="2" y="-23" as="offset" />
          </mxGeometry>
        </mxCell>
        <mxCell id="eKCD0eh1Yr5J9AccJsgl-184" value="Doris" style="rounded=0;whiteSpace=wrap;html=1;" vertex="1" parent="1">
          <mxGeometry x="921" y="263" width="81" height="38" as="geometry" />
        </mxCell>
        <mxCell id="eKCD0eh1Yr5J9AccJsgl-186" value="" style="endArrow=classic;html=1;rounded=0;" edge="1" parent="1" source="eKCD0eh1Yr5J9AccJsgl-45" target="eKCD0eh1Yr5J9AccJsgl-184">
          <mxGeometry width="50" height="50" relative="1" as="geometry">
            <mxPoint x="910" y="527" as="sourcePoint" />
            <mxPoint x="960" y="477" as="targetPoint" />
          </mxGeometry>
        </mxCell>
        <mxCell id="eKCD0eh1Yr5J9AccJsgl-187" value="Wife" style="edgeLabel;html=1;align=center;verticalAlign=middle;resizable=0;points=[];" vertex="1" connectable="0" parent="eKCD0eh1Yr5J9AccJsgl-186">
          <mxGeometry x="0.0916" y="-3" relative="1" as="geometry">
            <mxPoint x="-2" y="-5" as="offset" />
          </mxGeometry>
        </mxCell>
        <mxCell id="eKCD0eh1Yr5J9AccJsgl-188" value="" style="endArrow=classic;html=1;rounded=0;" edge="1" parent="1" source="eKCD0eh1Yr5J9AccJsgl-45" target="eKCD0eh1Yr5J9AccJsgl-82">
          <mxGeometry width="50" height="50" relative="1" as="geometry">
            <mxPoint x="602" y="560" as="sourcePoint" />
            <mxPoint x="652" y="510" as="targetPoint" />
          </mxGeometry>
        </mxCell>
        <mxCell id="eKCD0eh1Yr5J9AccJsgl-189" value="Affair" style="edgeLabel;html=1;align=center;verticalAlign=middle;resizable=0;points=[];" vertex="1" connectable="0" parent="eKCD0eh1Yr5J9AccJsgl-188">
          <mxGeometry x="-0.3114" y="-1" relative="1" as="geometry">
            <mxPoint as="offset" />
          </mxGeometry>
        </mxCell>
        <mxCell id="eKCD0eh1Yr5J9AccJsgl-190" value="Helena albers" style="rounded=0;whiteSpace=wrap;html=1;" vertex="1" parent="1">
          <mxGeometry x="646" y="-57" width="120" height="60" as="geometry" />
        </mxCell>
        <mxCell id="eKCD0eh1Yr5J9AccJsgl-191" value="" style="endArrow=classic;html=1;rounded=0;exitX=0.75;exitY=0;exitDx=0;exitDy=0;" edge="1" parent="1" source="eKCD0eh1Yr5J9AccJsgl-54" target="eKCD0eh1Yr5J9AccJsgl-140">
          <mxGeometry width="50" height="50" relative="1" as="geometry">
            <mxPoint x="774" y="663" as="sourcePoint" />
            <mxPoint x="951" y="552" as="targetPoint" />
            <Array as="points">
              <mxPoint x="937" y="599" />
            </Array>
          </mxGeometry>
        </mxCell>
        <mxCell id="eKCD0eh1Yr5J9AccJsgl-192" value="Father" style="edgeLabel;html=1;align=center;verticalAlign=middle;resizable=0;points=[];" vertex="1" connectable="0" parent="eKCD0eh1Yr5J9AccJsgl-191">
          <mxGeometry x="0.2346" y="-3" relative="1" as="geometry">
            <mxPoint as="offset" />
          </mxGeometry>
        </mxCell>
        <mxCell id="eKCD0eh1Yr5J9AccJsgl-193" value="" style="endArrow=classic;startArrow=classic;html=1;rounded=0;" edge="1" parent="1" source="eKCD0eh1Yr5J9AccJsgl-140" target="eKCD0eh1Yr5J9AccJsgl-48">
          <mxGeometry width="50" height="50" relative="1" as="geometry">
            <mxPoint x="774" y="663" as="sourcePoint" />
            <mxPoint x="824" y="613" as="targetPoint" />
          </mxGeometry>
        </mxCell>
        <mxCell id="eKCD0eh1Yr5J9AccJsgl-194" value="Fuck" style="edgeLabel;html=1;align=center;verticalAlign=middle;resizable=0;points=[];" vertex="1" connectable="0" parent="eKCD0eh1Yr5J9AccJsgl-193">
          <mxGeometry x="0.2373" y="1" relative="1" as="geometry">
            <mxPoint x="21" y="-3" as="offset" />
          </mxGeometry>
        </mxCell>
        <mxCell id="eKCD0eh1Yr5J9AccJsgl-196" value="" style="endArrow=classic;html=1;rounded=0;" edge="1" parent="1" source="eKCD0eh1Yr5J9AccJsgl-101" target="eKCD0eh1Yr5J9AccJsgl-103">
          <mxGeometry width="50" height="50" relative="1" as="geometry">
            <mxPoint x="1372" y="259" as="sourcePoint" />
            <mxPoint x="1422" y="209" as="targetPoint" />
          </mxGeometry>
        </mxCell>
        <mxCell id="eKCD0eh1Yr5J9AccJsgl-197" value="Mother" style="edgeLabel;html=1;align=center;verticalAlign=middle;resizable=0;points=[];" vertex="1" connectable="0" parent="eKCD0eh1Yr5J9AccJsgl-196">
          <mxGeometry x="0.1201" y="-2" relative="1" as="geometry">
            <mxPoint as="offset" />
          </mxGeometry>
        </mxCell>
        <mxCell id="eKCD0eh1Yr5J9AccJsgl-198" value="" style="endArrow=classic;html=1;rounded=0;" edge="1" parent="1" source="eKCD0eh1Yr5J9AccJsgl-101" target="eKCD0eh1Yr5J9AccJsgl-1">
          <mxGeometry width="50" height="50" relative="1" as="geometry">
            <mxPoint x="1207" y="261" as="sourcePoint" />
            <mxPoint x="625" y="269" as="targetPoint" />
          </mxGeometry>
        </mxCell>
        <mxCell id="eKCD0eh1Yr5J9AccJsgl-199" value="Father" style="edgeLabel;html=1;align=center;verticalAlign=middle;resizable=0;points=[];" vertex="1" connectable="0" parent="eKCD0eh1Yr5J9AccJsgl-198">
          <mxGeometry x="-0.5517" y="1" relative="1" as="geometry">
            <mxPoint as="offset" />
          </mxGeometry>
        </mxCell>
        <mxCell id="eKCD0eh1Yr5J9AccJsgl-200" value="" style="endArrow=classic;html=1;rounded=0;" edge="1" parent="1" source="eKCD0eh1Yr5J9AccJsgl-87" target="eKCD0eh1Yr5J9AccJsgl-77">
          <mxGeometry width="50" height="50" relative="1" as="geometry">
            <mxPoint x="746" y="876" as="sourcePoint" />
            <mxPoint x="796" y="826" as="targetPoint" />
          </mxGeometry>
        </mxCell>
        <mxCell id="eKCD0eh1Yr5J9AccJsgl-201" value="son" style="edgeLabel;html=1;align=center;verticalAlign=middle;resizable=0;points=[];" vertex="1" connectable="0" parent="eKCD0eh1Yr5J9AccJsgl-200">
          <mxGeometry x="0.1094" relative="1" as="geometry">
            <mxPoint x="7" y="-7" as="offset" />
          </mxGeometry>
        </mxCell>
        <mxCell id="eKCD0eh1Yr5J9AccJsgl-202" value="Son ?" style="rounded=0;whiteSpace=wrap;html=1;" vertex="1" parent="1">
          <mxGeometry x="416" y="620" width="76" height="37" as="geometry" />
        </mxCell>
        <mxCell id="eKCD0eh1Yr5J9AccJsgl-203" value="" style="endArrow=classic;html=1;rounded=0;" edge="1" parent="1" source="eKCD0eh1Yr5J9AccJsgl-25" target="eKCD0eh1Yr5J9AccJsgl-202">
          <mxGeometry width="50" height="50" relative="1" as="geometry">
            <mxPoint x="520" y="725" as="sourcePoint" />
            <mxPoint x="570" y="675" as="targetPoint" />
          </mxGeometry>
        </mxCell>
        <mxCell id="eKCD0eh1Yr5J9AccJsgl-205" value="" style="endArrow=classic;html=1;rounded=0;" edge="1" parent="1" source="eKCD0eh1Yr5J9AccJsgl-42" target="eKCD0eh1Yr5J9AccJsgl-190">
          <mxGeometry width="50" height="50" relative="1" as="geometry">
            <mxPoint x="786.9447474747474" y="247.5" as="sourcePoint" />
            <mxPoint x="687.9952525252525" y="10.5" as="targetPoint" />
          </mxGeometry>
        </mxCell>
        <mxCell id="eKCD0eh1Yr5J9AccJsgl-206" value="Mother" style="edgeLabel;html=1;align=center;verticalAlign=middle;resizable=0;points=[];" vertex="1" connectable="0" parent="eKCD0eh1Yr5J9AccJsgl-205">
          <mxGeometry x="0.2092" y="-2" relative="1" as="geometry">
            <mxPoint as="offset" />
          </mxGeometry>
        </mxCell>
        <mxCell id="eKCD0eh1Yr5J9AccJsgl-207" value="" style="endArrow=classic;html=1;rounded=0;" edge="1" parent="1" source="eKCD0eh1Yr5J9AccJsgl-190" target="eKCD0eh1Yr5J9AccJsgl-42">
          <mxGeometry width="50" height="50" relative="1" as="geometry">
            <mxPoint x="721" y="125" as="sourcePoint" />
            <mxPoint x="771" y="75" as="targetPoint" />
            <Array as="points">
              <mxPoint x="714" y="116" />
            </Array>
          </mxGeometry>
        </mxCell>
        <mxCell id="eKCD0eh1Yr5J9AccJsgl-208" value="Kills in&lt;br&gt;1986" style="edgeLabel;html=1;align=center;verticalAlign=middle;resizable=0;points=[];" vertex="1" connectable="0" parent="eKCD0eh1Yr5J9AccJsgl-207">
          <mxGeometry x="-0.2199" relative="1" as="geometry">
            <mxPoint x="3" y="17" as="offset" />
          </mxGeometry>
        </mxCell>
        <mxCell id="eKCD0eh1Yr5J9AccJsgl-209" value="2020" style="rounded=0;whiteSpace=wrap;html=1;" vertex="1" parent="1">
          <mxGeometry x="576" y="1010" width="80" height="34" as="geometry" />
        </mxCell>
        <mxCell id="eKCD0eh1Yr5J9AccJsgl-211" value="" style="endArrow=classic;html=1;rounded=0;" edge="1" parent="1" source="eKCD0eh1Yr5J9AccJsgl-77" target="eKCD0eh1Yr5J9AccJsgl-209">
          <mxGeometry width="50" height="50" relative="1" as="geometry">
            <mxPoint x="616" y="1023" as="sourcePoint" />
            <mxPoint x="666" y="973" as="targetPoint" />
          </mxGeometry>
        </mxCell>
        <mxCell id="eKCD0eh1Yr5J9AccJsgl-212" value="dies" style="edgeLabel;html=1;align=center;verticalAlign=middle;resizable=0;points=[];" vertex="1" connectable="0" parent="eKCD0eh1Yr5J9AccJsgl-211">
          <mxGeometry x="-0.0142" y="-2" relative="1" as="geometry">
            <mxPoint as="offset" />
          </mxGeometry>
        </mxCell>
        <mxCell id="eKCD0eh1Yr5J9AccJsgl-213" value="" style="endArrow=classic;html=1;rounded=0;" edge="1" parent="1" source="eKCD0eh1Yr5J9AccJsgl-87" target="eKCD0eh1Yr5J9AccJsgl-214">
          <mxGeometry width="50" height="50" relative="1" as="geometry">
            <mxPoint x="859" y="916" as="sourcePoint" />
            <mxPoint x="978" y="1007" as="targetPoint" />
          </mxGeometry>
        </mxCell>
        <mxCell id="eKCD0eh1Yr5J9AccJsgl-214" value="wife ?" style="rounded=0;whiteSpace=wrap;html=1;" vertex="1" parent="1">
          <mxGeometry x="969" y="1005" width="81" height="32" as="geometry" />
        </mxCell>
        <mxCell id="eKCD0eh1Yr5J9AccJsgl-216" value="&lt;p style=&quot;margin: 0px; font-variant-numeric: normal; font-variant-east-asian: normal; font-variant-alternates: normal; font-kerning: auto; font-optical-sizing: auto; font-feature-settings: normal; font-variation-settings: normal; font-variant-position: normal; font-stretch: normal; font-size: 13px; line-height: normal; font-family: &amp;quot;Helvetica Neue&amp;quot;; text-align: start;&quot; class=&quot;p1&quot;&gt;Boris niewald&lt;/p&gt;" style="rounded=0;whiteSpace=wrap;html=1;" vertex="1" parent="1">
          <mxGeometry x="1227" y="594" width="112" height="26" as="geometry" />
        </mxCell>
        <mxCell id="eKCD0eh1Yr5J9AccJsgl-217" value="" style="endArrow=classic;html=1;rounded=0;" edge="1" parent="1" source="eKCD0eh1Yr5J9AccJsgl-6" target="eKCD0eh1Yr5J9AccJsgl-216">
          <mxGeometry width="50" height="50" relative="1" as="geometry">
            <mxPoint x="1164" y="766" as="sourcePoint" />
            <mxPoint x="1214" y="716" as="targetPoint" />
          </mxGeometry>
        </mxCell>
        <mxCell id="eKCD0eh1Yr5J9AccJsgl-218" value="real identity" style="edgeLabel;html=1;align=center;verticalAlign=middle;resizable=0;points=[];" vertex="1" connectable="0" parent="eKCD0eh1Yr5J9AccJsgl-217">
          <mxGeometry x="-0.0687" y="2" relative="1" as="geometry">
            <mxPoint as="offset" />
          </mxGeometry>
        </mxCell>
        <mxCell id="eKCD0eh1Yr5J9AccJsgl-219" value="Universe 2&lt;br&gt;sharlot" style="rounded=0;whiteSpace=wrap;html=1;" vertex="1" parent="1">
          <mxGeometry x="1533" y="79" width="93" height="39" as="geometry" />
        </mxCell>
        <mxCell id="eKCD0eh1Yr5J9AccJsgl-220" value="" style="endArrow=classic;html=1;rounded=0;" edge="1" parent="1" source="eKCD0eh1Yr5J9AccJsgl-110" target="eKCD0eh1Yr5J9AccJsgl-219">
          <mxGeometry width="50" height="50" relative="1" as="geometry">
            <mxPoint x="1712" y="131" as="sourcePoint" />
            <mxPoint x="1762" y="81" as="targetPoint" />
          </mxGeometry>
        </mxCell>
        <mxCell id="eKCD0eh1Yr5J9AccJsgl-221" value="Affair" style="edgeLabel;html=1;align=center;verticalAlign=middle;resizable=0;points=[];" vertex="1" connectable="0" parent="eKCD0eh1Yr5J9AccJsgl-220">
          <mxGeometry x="0.2928" y="2" relative="1" as="geometry">
            <mxPoint x="11" y="5" as="offset" />
          </mxGeometry>
        </mxCell>
      </root>
    </mxGraphModel>
  </diagram>
</mxfile>
